<mxfile host="Electron" agent="Mozilla/5.0 (Windows NT 10.0; Win64; x64) AppleWebKit/537.36 (KHTML, like Gecko) draw.io/28.1.2 Chrome/138.0.7204.243 Electron/37.4.0 Safari/537.36" version="28.1.2">
  <diagram name="Page-1" id="KQ7QUBDdLdKXoh_luyYe">
    <mxGraphModel dx="3827" dy="1811" grid="1" gridSize="10" guides="1" tooltips="1" connect="1" arrows="1" fold="1" page="1" pageScale="1" pageWidth="850" pageHeight="1100" math="0" shadow="0">
      <root>
        <mxCell id="0" />
        <mxCell id="1" parent="0" />
        <mxCell id="u0i_rZttRsRFg4nwWqIy-1" value="Start" style="strokeWidth=2;html=1;shape=mxgraph.flowchart.start_1;whiteSpace=wrap;" parent="1" vertex="1">
          <mxGeometry x="200" y="50" width="100" height="60" as="geometry" />
        </mxCell>
        <mxCell id="x9-Wz6svkBGzex6C_qUv-1" value="username_db : String&lt;div&gt;password_db : String&lt;/div&gt;&lt;div&gt;status : String&lt;/div&gt;&lt;div&gt;login : Boolean&lt;/div&gt;&lt;div&gt;kesempatan : Integer&lt;/div&gt;&lt;div&gt;user : String&lt;/div&gt;&lt;div&gt;pw : String&lt;/div&gt;&lt;div&gt;total : Int&lt;/div&gt;&lt;div&gt;keranjang : String&lt;/div&gt;&lt;div&gt;pilih : String&lt;/div&gt;&lt;div&gt;diskon : Float&lt;/div&gt;&lt;div&gt;harga_akhir : Float&lt;/div&gt;&lt;div&gt;ulang : String&lt;/div&gt;" style="shape=internalStorage;whiteSpace=wrap;html=1;dx=15;dy=15;rounded=1;arcSize=8;strokeWidth=2;" parent="1" vertex="1">
          <mxGeometry x="105" y="180" width="290" height="230" as="geometry" />
        </mxCell>
        <mxCell id="x9-Wz6svkBGzex6C_qUv-2" value="" style="edgeStyle=orthogonalEdgeStyle;rounded=0;orthogonalLoop=1;jettySize=auto;html=1;" parent="1" source="u0i_rZttRsRFg4nwWqIy-1" target="x9-Wz6svkBGzex6C_qUv-1" edge="1">
          <mxGeometry relative="1" as="geometry" />
        </mxCell>
        <mxCell id="x9-Wz6svkBGzex6C_qUv-3" value="&lt;div&gt;username_db = &quot;zidan&quot;&lt;/div&gt;&lt;div&gt;password_db = &quot;021&quot;&lt;/div&gt;" style="shape=label;html=1;strokeWidth=2;whiteSpace=wrap;rounded=1;arcSize=14;size=0.23;absoluteArcSize=1;" parent="1" vertex="1">
          <mxGeometry x="121.33" y="490" width="256.67" height="110" as="geometry" />
        </mxCell>
        <mxCell id="x9-Wz6svkBGzex6C_qUv-4" value="" style="edgeStyle=orthogonalEdgeStyle;rounded=0;orthogonalLoop=1;jettySize=auto;html=1;" parent="1" source="x9-Wz6svkBGzex6C_qUv-1" target="x9-Wz6svkBGzex6C_qUv-3" edge="1">
          <mxGeometry relative="1" as="geometry" />
        </mxCell>
        <mxCell id="x9-Wz6svkBGzex6C_qUv-5" value="While True" style="verticalLabelPosition=middle;verticalAlign=middle;html=1;shape=hexagon;perimeter=hexagonPerimeter2;arcSize=6;size=0.27;labelPosition=center;align=center;" parent="1" vertex="1">
          <mxGeometry x="157.99833333333336" y="680" width="183.33333333333331" height="110" as="geometry" />
        </mxCell>
        <mxCell id="x9-Wz6svkBGzex6C_qUv-6" value="" style="edgeStyle=orthogonalEdgeStyle;rounded=0;orthogonalLoop=1;jettySize=auto;html=1;" parent="1" source="x9-Wz6svkBGzex6C_qUv-3" target="x9-Wz6svkBGzex6C_qUv-5" edge="1">
          <mxGeometry relative="1" as="geometry" />
        </mxCell>
        <mxCell id="x9-Wz6svkBGzex6C_qUv-7" value="Output&amp;nbsp;&lt;div&gt;Ucapan Selamat Datang&lt;/div&gt;" style="shape=parallelogram;html=1;strokeWidth=2;perimeter=parallelogramPerimeter;whiteSpace=wrap;rounded=1;arcSize=12;size=0.23;" parent="1" vertex="1">
          <mxGeometry x="421.3316666666667" y="680" width="183.33333333333331" height="110" as="geometry" />
        </mxCell>
        <mxCell id="x9-Wz6svkBGzex6C_qUv-8" value="" style="edgeStyle=orthogonalEdgeStyle;rounded=0;orthogonalLoop=1;jettySize=auto;html=1;" parent="1" source="x9-Wz6svkBGzex6C_qUv-5" target="x9-Wz6svkBGzex6C_qUv-7" edge="1">
          <mxGeometry relative="1" as="geometry" />
        </mxCell>
        <mxCell id="x9-Wz6svkBGzex6C_qUv-21" value="T" style="edgeLabel;html=1;align=center;verticalAlign=middle;resizable=0;points=[];" parent="x9-Wz6svkBGzex6C_qUv-8" vertex="1" connectable="0">
          <mxGeometry x="-0.1657" y="3" relative="1" as="geometry">
            <mxPoint as="offset" />
          </mxGeometry>
        </mxCell>
        <mxCell id="x9-Wz6svkBGzex6C_qUv-9" value="" style="endArrow=classic;html=1;rounded=0;exitX=1;exitY=1;exitDx=0;exitDy=0;" parent="1" source="x9-Wz6svkBGzex6C_qUv-7" edge="1">
          <mxGeometry width="50" height="50" relative="1" as="geometry">
            <mxPoint x="620" y="800" as="sourcePoint" />
            <mxPoint x="650" y="770" as="targetPoint" />
          </mxGeometry>
        </mxCell>
        <mxCell id="x9-Wz6svkBGzex6C_qUv-10" value="Output Bertanya apakah&lt;div&gt;user member? y/n&lt;/div&gt;" style="shape=parallelogram;html=1;strokeWidth=2;perimeter=parallelogramPerimeter;whiteSpace=wrap;rounded=1;arcSize=12;size=0.23;" parent="1" vertex="1">
          <mxGeometry x="684.665" y="680" width="183.33333333333331" height="110" as="geometry" />
        </mxCell>
        <mxCell id="x9-Wz6svkBGzex6C_qUv-11" value="" style="edgeStyle=orthogonalEdgeStyle;rounded=0;orthogonalLoop=1;jettySize=auto;html=1;" parent="1" source="x9-Wz6svkBGzex6C_qUv-7" target="x9-Wz6svkBGzex6C_qUv-10" edge="1">
          <mxGeometry relative="1" as="geometry" />
        </mxCell>
        <mxCell id="x9-Wz6svkBGzex6C_qUv-12" value="" style="endArrow=classic;html=1;rounded=0;exitX=1;exitY=1;exitDx=0;exitDy=0;" parent="1" edge="1">
          <mxGeometry width="50" height="50" relative="1" as="geometry">
            <mxPoint x="832" y="770" as="sourcePoint" />
            <mxPoint x="912" y="771" as="targetPoint" />
          </mxGeometry>
        </mxCell>
        <mxCell id="x9-Wz6svkBGzex6C_qUv-13" value="Input status" style="shape=parallelogram;html=1;strokeWidth=2;perimeter=parallelogramPerimeter;whiteSpace=wrap;rounded=1;arcSize=12;size=0.23;" parent="1" vertex="1">
          <mxGeometry x="684.665" y="870" width="183.33333333333331" height="110" as="geometry" />
        </mxCell>
        <mxCell id="x9-Wz6svkBGzex6C_qUv-14" value="" style="edgeStyle=orthogonalEdgeStyle;rounded=0;orthogonalLoop=1;jettySize=auto;html=1;" parent="1" source="x9-Wz6svkBGzex6C_qUv-10" target="x9-Wz6svkBGzex6C_qUv-13" edge="1">
          <mxGeometry relative="1" as="geometry" />
        </mxCell>
        <mxCell id="x9-Wz6svkBGzex6C_qUv-15" value="" style="endArrow=classic;html=1;rounded=0;entryX=0;entryY=0;entryDx=0;entryDy=0;" parent="1" target="x9-Wz6svkBGzex6C_qUv-13" edge="1">
          <mxGeometry width="50" height="50" relative="1" as="geometry">
            <mxPoint x="640" y="890" as="sourcePoint" />
            <mxPoint x="670" y="870" as="targetPoint" />
          </mxGeometry>
        </mxCell>
        <mxCell id="x9-Wz6svkBGzex6C_qUv-17" value="login = false" style="rounded=1;whiteSpace=wrap;html=1;absoluteArcSize=1;arcSize=14;strokeWidth=2;" parent="1" vertex="1">
          <mxGeometry x="721.3316666666666" y="1060" width="110.00000000000001" height="110" as="geometry" />
        </mxCell>
        <mxCell id="x9-Wz6svkBGzex6C_qUv-18" value="" style="edgeStyle=orthogonalEdgeStyle;rounded=0;orthogonalLoop=1;jettySize=auto;html=1;" parent="1" source="x9-Wz6svkBGzex6C_qUv-13" target="x9-Wz6svkBGzex6C_qUv-17" edge="1">
          <mxGeometry relative="1" as="geometry" />
        </mxCell>
        <mxCell id="x9-Wz6svkBGzex6C_qUv-24" value="if status == &quot;y&quot;" style="strokeWidth=2;html=1;shape=mxgraph.flowchart.decision;whiteSpace=wrap;" parent="1" vertex="1">
          <mxGeometry x="721.3316666666666" y="1250" width="110.00000000000001" height="110" as="geometry" />
        </mxCell>
        <mxCell id="x9-Wz6svkBGzex6C_qUv-25" value="" style="edgeStyle=orthogonalEdgeStyle;rounded=0;orthogonalLoop=1;jettySize=auto;html=1;" parent="1" source="x9-Wz6svkBGzex6C_qUv-17" target="x9-Wz6svkBGzex6C_qUv-24" edge="1">
          <mxGeometry relative="1" as="geometry" />
        </mxCell>
        <mxCell id="x9-Wz6svkBGzex6C_qUv-26" value="kesempatan = 3" style="rounded=1;whiteSpace=wrap;html=1;absoluteArcSize=1;arcSize=14;strokeWidth=2;" parent="1" vertex="1">
          <mxGeometry x="911.3316666666666" y="1250" width="110.00000000000001" height="110" as="geometry" />
        </mxCell>
        <mxCell id="x9-Wz6svkBGzex6C_qUv-27" value="" style="edgeStyle=orthogonalEdgeStyle;rounded=0;orthogonalLoop=1;jettySize=auto;html=1;" parent="1" source="x9-Wz6svkBGzex6C_qUv-24" target="x9-Wz6svkBGzex6C_qUv-26" edge="1">
          <mxGeometry relative="1" as="geometry" />
        </mxCell>
        <mxCell id="x9-Wz6svkBGzex6C_qUv-30" value="T" style="edgeLabel;html=1;align=center;verticalAlign=middle;resizable=0;points=[];" parent="x9-Wz6svkBGzex6C_qUv-27" vertex="1" connectable="0">
          <mxGeometry x="-0.0642" y="2" relative="1" as="geometry">
            <mxPoint as="offset" />
          </mxGeometry>
        </mxCell>
        <mxCell id="X1MsL-uY44Cwmpi8W53h-71" style="edgeStyle=orthogonalEdgeStyle;rounded=0;orthogonalLoop=1;jettySize=auto;html=1;exitX=0.5;exitY=1;exitDx=0;exitDy=0;" edge="1" parent="1" source="x9-Wz6svkBGzex6C_qUv-28" target="Lzw2r7slbGNOF9ULyKfq-49">
          <mxGeometry relative="1" as="geometry" />
        </mxCell>
        <mxCell id="x9-Wz6svkBGzex6C_qUv-28" value="Output User berbelanja&amp;nbsp;&lt;div&gt;sebagai non member&lt;/div&gt;" style="shape=parallelogram;html=1;strokeWidth=2;perimeter=parallelogramPerimeter;whiteSpace=wrap;rounded=1;arcSize=12;size=0.23;" parent="1" vertex="1">
          <mxGeometry x="684.665" y="1440" width="183.33333333333331" height="110" as="geometry" />
        </mxCell>
        <mxCell id="x9-Wz6svkBGzex6C_qUv-29" value="" style="edgeStyle=orthogonalEdgeStyle;rounded=0;orthogonalLoop=1;jettySize=auto;html=1;" parent="1" source="x9-Wz6svkBGzex6C_qUv-24" target="x9-Wz6svkBGzex6C_qUv-28" edge="1">
          <mxGeometry relative="1" as="geometry" />
        </mxCell>
        <mxCell id="x9-Wz6svkBGzex6C_qUv-31" value="F" style="edgeLabel;html=1;align=center;verticalAlign=middle;resizable=0;points=[];" parent="x9-Wz6svkBGzex6C_qUv-29" vertex="1" connectable="0">
          <mxGeometry x="-0.4007" y="2" relative="1" as="geometry">
            <mxPoint as="offset" />
          </mxGeometry>
        </mxCell>
        <mxCell id="Lzw2r7slbGNOF9ULyKfq-56" style="edgeStyle=orthogonalEdgeStyle;rounded=0;orthogonalLoop=1;jettySize=auto;html=1;exitX=0.375;exitY=1;exitDx=0;exitDy=0;" parent="1" source="x9-Wz6svkBGzex6C_qUv-32" target="Lzw2r7slbGNOF9ULyKfq-49" edge="1">
          <mxGeometry relative="1" as="geometry" />
        </mxCell>
        <mxCell id="x9-Wz6svkBGzex6C_qUv-32" value="While kesempatan &amp;gt; 0" style="verticalLabelPosition=middle;verticalAlign=middle;html=1;shape=hexagon;perimeter=hexagonPerimeter2;arcSize=6;size=0.27;labelPosition=center;align=center;" parent="1" vertex="1">
          <mxGeometry x="1101.3316666666665" y="1250" width="183.33333333333331" height="110" as="geometry" />
        </mxCell>
        <mxCell id="x9-Wz6svkBGzex6C_qUv-33" value="" style="edgeStyle=orthogonalEdgeStyle;rounded=0;orthogonalLoop=1;jettySize=auto;html=1;" parent="1" source="x9-Wz6svkBGzex6C_qUv-26" target="x9-Wz6svkBGzex6C_qUv-32" edge="1">
          <mxGeometry relative="1" as="geometry" />
        </mxCell>
        <mxCell id="x9-Wz6svkBGzex6C_qUv-39" style="edgeStyle=orthogonalEdgeStyle;rounded=0;orthogonalLoop=1;jettySize=auto;html=1;exitX=1;exitY=0.5;exitDx=0;exitDy=0;entryX=0;entryY=0.5;entryDx=0;entryDy=0;" parent="1" source="x9-Wz6svkBGzex6C_qUv-34" target="x9-Wz6svkBGzex6C_qUv-37" edge="1">
          <mxGeometry relative="1" as="geometry" />
        </mxCell>
        <mxCell id="x9-Wz6svkBGzex6C_qUv-34" value="Output Heading ini&amp;nbsp;&lt;div&gt;Login Member&lt;/div&gt;" style="shape=parallelogram;html=1;strokeWidth=2;perimeter=parallelogramPerimeter;whiteSpace=wrap;rounded=1;arcSize=12;size=0.23;" parent="1" vertex="1">
          <mxGeometry x="1364.665" y="1250" width="183.33333333333331" height="110" as="geometry" />
        </mxCell>
        <mxCell id="x9-Wz6svkBGzex6C_qUv-35" value="" style="edgeStyle=orthogonalEdgeStyle;rounded=0;orthogonalLoop=1;jettySize=auto;html=1;" parent="1" source="x9-Wz6svkBGzex6C_qUv-32" target="x9-Wz6svkBGzex6C_qUv-34" edge="1">
          <mxGeometry relative="1" as="geometry" />
        </mxCell>
        <mxCell id="Lzw2r7slbGNOF9ULyKfq-48" value="T" style="edgeLabel;html=1;align=center;verticalAlign=middle;resizable=0;points=[];" parent="x9-Wz6svkBGzex6C_qUv-35" vertex="1" connectable="0">
          <mxGeometry x="0.0139" y="-2" relative="1" as="geometry">
            <mxPoint as="offset" />
          </mxGeometry>
        </mxCell>
        <mxCell id="x9-Wz6svkBGzex6C_qUv-36" value="" style="endArrow=classic;html=1;rounded=0;exitX=1;exitY=1;exitDx=0;exitDy=0;" parent="1" source="x9-Wz6svkBGzex6C_qUv-34" edge="1">
          <mxGeometry width="50" height="50" relative="1" as="geometry">
            <mxPoint x="1580" y="1400" as="sourcePoint" />
            <mxPoint x="1580" y="1340" as="targetPoint" />
          </mxGeometry>
        </mxCell>
        <mxCell id="x9-Wz6svkBGzex6C_qUv-37" value="Output bertanya&amp;nbsp;&lt;div&gt;masukkan username?&lt;/div&gt;" style="shape=parallelogram;html=1;strokeWidth=2;perimeter=parallelogramPerimeter;whiteSpace=wrap;rounded=1;arcSize=12;size=0.23;" parent="1" vertex="1">
          <mxGeometry x="1590" y="1250" width="183.33333333333331" height="110" as="geometry" />
        </mxCell>
        <mxCell id="x9-Wz6svkBGzex6C_qUv-38" value="" style="endArrow=classic;html=1;rounded=0;exitX=1;exitY=1;exitDx=0;exitDy=0;" parent="1" source="x9-Wz6svkBGzex6C_qUv-37" edge="1">
          <mxGeometry width="50" height="50" relative="1" as="geometry">
            <mxPoint x="1805.335" y="1400" as="sourcePoint" />
            <mxPoint x="1805.335" y="1340" as="targetPoint" />
          </mxGeometry>
        </mxCell>
        <mxCell id="x9-Wz6svkBGzex6C_qUv-40" value="Input user" style="shape=parallelogram;html=1;strokeWidth=2;perimeter=parallelogramPerimeter;whiteSpace=wrap;rounded=1;arcSize=12;size=0.23;" parent="1" vertex="1">
          <mxGeometry x="1853.3333333333335" y="1250" width="183.33333333333331" height="110" as="geometry" />
        </mxCell>
        <mxCell id="x9-Wz6svkBGzex6C_qUv-41" value="" style="edgeStyle=orthogonalEdgeStyle;rounded=0;orthogonalLoop=1;jettySize=auto;html=1;" parent="1" source="x9-Wz6svkBGzex6C_qUv-37" target="x9-Wz6svkBGzex6C_qUv-40" edge="1">
          <mxGeometry relative="1" as="geometry" />
        </mxCell>
        <mxCell id="x9-Wz6svkBGzex6C_qUv-42" value="" style="endArrow=classic;html=1;rounded=0;entryX=0.206;entryY=0.118;entryDx=0;entryDy=0;entryPerimeter=0;" parent="1" target="x9-Wz6svkBGzex6C_qUv-40" edge="1">
          <mxGeometry width="50" height="50" relative="1" as="geometry">
            <mxPoint x="1830" y="1263" as="sourcePoint" />
            <mxPoint x="1870" y="1210" as="targetPoint" />
          </mxGeometry>
        </mxCell>
        <mxCell id="x9-Wz6svkBGzex6C_qUv-43" style="edgeStyle=orthogonalEdgeStyle;rounded=0;orthogonalLoop=1;jettySize=auto;html=1;exitX=1;exitY=0.5;exitDx=0;exitDy=0;entryX=0;entryY=0.5;entryDx=0;entryDy=0;" parent="1" target="x9-Wz6svkBGzex6C_qUv-44" edge="1">
          <mxGeometry relative="1" as="geometry">
            <mxPoint x="2013" y="1308" as="sourcePoint" />
          </mxGeometry>
        </mxCell>
        <mxCell id="x9-Wz6svkBGzex6C_qUv-44" value="Output bertanya&amp;nbsp;&lt;div&gt;masukkan password?&lt;/div&gt;" style="shape=parallelogram;html=1;strokeWidth=2;perimeter=parallelogramPerimeter;whiteSpace=wrap;rounded=1;arcSize=12;size=0.23;" parent="1" vertex="1">
          <mxGeometry x="2076" y="1253" width="183.33333333333331" height="110" as="geometry" />
        </mxCell>
        <mxCell id="x9-Wz6svkBGzex6C_qUv-45" value="" style="endArrow=classic;html=1;rounded=0;exitX=1;exitY=1;exitDx=0;exitDy=0;" parent="1" source="x9-Wz6svkBGzex6C_qUv-44" edge="1">
          <mxGeometry width="50" height="50" relative="1" as="geometry">
            <mxPoint x="2291.335" y="1403" as="sourcePoint" />
            <mxPoint x="2291.335" y="1343" as="targetPoint" />
          </mxGeometry>
        </mxCell>
        <mxCell id="x9-Wz6svkBGzex6C_qUv-46" value="Input pw" style="shape=parallelogram;html=1;strokeWidth=2;perimeter=parallelogramPerimeter;whiteSpace=wrap;rounded=1;arcSize=12;size=0.23;" parent="1" vertex="1">
          <mxGeometry x="2339.3333333333335" y="1253" width="183.33333333333331" height="110" as="geometry" />
        </mxCell>
        <mxCell id="x9-Wz6svkBGzex6C_qUv-47" value="" style="edgeStyle=orthogonalEdgeStyle;rounded=0;orthogonalLoop=1;jettySize=auto;html=1;" parent="1" source="x9-Wz6svkBGzex6C_qUv-44" target="x9-Wz6svkBGzex6C_qUv-46" edge="1">
          <mxGeometry relative="1" as="geometry" />
        </mxCell>
        <mxCell id="x9-Wz6svkBGzex6C_qUv-48" value="" style="endArrow=classic;html=1;rounded=0;entryX=0.206;entryY=0.118;entryDx=0;entryDy=0;entryPerimeter=0;" parent="1" target="x9-Wz6svkBGzex6C_qUv-46" edge="1">
          <mxGeometry width="50" height="50" relative="1" as="geometry">
            <mxPoint x="2316" y="1266" as="sourcePoint" />
            <mxPoint x="2356" y="1213" as="targetPoint" />
          </mxGeometry>
        </mxCell>
        <mxCell id="x9-Wz6svkBGzex6C_qUv-53" style="edgeStyle=orthogonalEdgeStyle;rounded=0;orthogonalLoop=1;jettySize=auto;html=1;exitX=0.5;exitY=1;exitDx=0;exitDy=0;exitPerimeter=0;entryX=0.5;entryY=0;entryDx=0;entryDy=0;" parent="1" source="x9-Wz6svkBGzex6C_qUv-49" target="x9-Wz6svkBGzex6C_qUv-51" edge="1">
          <mxGeometry relative="1" as="geometry" />
        </mxCell>
        <mxCell id="x9-Wz6svkBGzex6C_qUv-49" value="if user == &quot;&quot;&lt;div&gt;or&lt;/div&gt;&lt;div&gt;pw == &quot;&quot;&lt;/div&gt;" style="strokeWidth=2;html=1;shape=mxgraph.flowchart.decision;whiteSpace=wrap;" parent="1" vertex="1">
          <mxGeometry x="2376" y="1443" width="110.00000000000001" height="110" as="geometry" />
        </mxCell>
        <mxCell id="x9-Wz6svkBGzex6C_qUv-50" value="" style="edgeStyle=orthogonalEdgeStyle;rounded=0;orthogonalLoop=1;jettySize=auto;html=1;" parent="1" source="x9-Wz6svkBGzex6C_qUv-46" target="x9-Wz6svkBGzex6C_qUv-49" edge="1">
          <mxGeometry relative="1" as="geometry" />
        </mxCell>
        <mxCell id="x9-Wz6svkBGzex6C_qUv-51" value="Output larangan&lt;div&gt;input tidak boleh kosong!&lt;/div&gt;" style="shape=parallelogram;html=1;strokeWidth=2;perimeter=parallelogramPerimeter;whiteSpace=wrap;rounded=1;arcSize=12;size=0.23;" parent="1" vertex="1">
          <mxGeometry x="2339.3333333333335" y="1600" width="183.33333333333331" height="110" as="geometry" />
        </mxCell>
        <mxCell id="x9-Wz6svkBGzex6C_qUv-52" value="" style="endArrow=classic;html=1;rounded=0;entryX=0.206;entryY=0.118;entryDx=0;entryDy=0;entryPerimeter=0;" parent="1" edge="1">
          <mxGeometry width="50" height="50" relative="1" as="geometry">
            <mxPoint x="2486" y="1690.02" as="sourcePoint" />
            <mxPoint x="2547.1" y="1690" as="targetPoint" />
          </mxGeometry>
        </mxCell>
        <mxCell id="x9-Wz6svkBGzex6C_qUv-55" value="continue" style="rounded=1;whiteSpace=wrap;html=1;absoluteArcSize=1;arcSize=14;strokeWidth=2;" parent="1" vertex="1">
          <mxGeometry x="2376" y="1790" width="110.00000000000001" height="110" as="geometry" />
        </mxCell>
        <mxCell id="x9-Wz6svkBGzex6C_qUv-56" value="" style="edgeStyle=orthogonalEdgeStyle;rounded=0;orthogonalLoop=1;jettySize=auto;html=1;" parent="1" source="x9-Wz6svkBGzex6C_qUv-51" target="x9-Wz6svkBGzex6C_qUv-55" edge="1">
          <mxGeometry relative="1" as="geometry" />
        </mxCell>
        <mxCell id="x9-Wz6svkBGzex6C_qUv-57" value="if&lt;div&gt;user == username_db&lt;/div&gt;&lt;div&gt;and&lt;/div&gt;&lt;div&gt;pw == password_db&lt;/div&gt;" style="strokeWidth=2;html=1;shape=mxgraph.flowchart.decision;whiteSpace=wrap;" parent="1" vertex="1">
          <mxGeometry x="2345" y="1980" width="174" height="150" as="geometry" />
        </mxCell>
        <mxCell id="x9-Wz6svkBGzex6C_qUv-58" value="" style="edgeStyle=orthogonalEdgeStyle;rounded=0;orthogonalLoop=1;jettySize=auto;html=1;" parent="1" source="x9-Wz6svkBGzex6C_qUv-55" target="x9-Wz6svkBGzex6C_qUv-57" edge="1">
          <mxGeometry relative="1" as="geometry" />
        </mxCell>
        <mxCell id="Lzw2r7slbGNOF9ULyKfq-5" style="edgeStyle=orthogonalEdgeStyle;rounded=0;orthogonalLoop=1;jettySize=auto;html=1;exitX=1;exitY=0.5;exitDx=0;exitDy=0;entryX=0;entryY=0.5;entryDx=0;entryDy=0;" parent="1" source="Lzw2r7slbGNOF9ULyKfq-1" target="Lzw2r7slbGNOF9ULyKfq-3" edge="1">
          <mxGeometry relative="1" as="geometry" />
        </mxCell>
        <mxCell id="Lzw2r7slbGNOF9ULyKfq-1" value="login = True" style="rounded=1;whiteSpace=wrap;html=1;absoluteArcSize=1;arcSize=14;strokeWidth=2;" parent="1" vertex="1">
          <mxGeometry x="2599" y="1980" width="150" height="150" as="geometry" />
        </mxCell>
        <mxCell id="Lzw2r7slbGNOF9ULyKfq-2" value="" style="edgeStyle=orthogonalEdgeStyle;rounded=0;orthogonalLoop=1;jettySize=auto;html=1;" parent="1" source="x9-Wz6svkBGzex6C_qUv-57" target="Lzw2r7slbGNOF9ULyKfq-1" edge="1">
          <mxGeometry relative="1" as="geometry" />
        </mxCell>
        <mxCell id="Lzw2r7slbGNOF9ULyKfq-11" value="T" style="edgeLabel;html=1;align=center;verticalAlign=middle;resizable=0;points=[];" parent="Lzw2r7slbGNOF9ULyKfq-2" vertex="1" connectable="0">
          <mxGeometry x="-0.215" y="-1" relative="1" as="geometry">
            <mxPoint x="-1" as="offset" />
          </mxGeometry>
        </mxCell>
        <mxCell id="Lzw2r7slbGNOF9ULyKfq-3" value="Output Login Berhasil!" style="shape=parallelogram;html=1;strokeWidth=2;perimeter=parallelogramPerimeter;whiteSpace=wrap;rounded=1;arcSize=12;size=0.23;" parent="1" vertex="1">
          <mxGeometry x="2850" y="2000" width="183.33333333333331" height="110" as="geometry" />
        </mxCell>
        <mxCell id="Lzw2r7slbGNOF9ULyKfq-4" value="" style="endArrow=classic;html=1;rounded=0;entryX=0.206;entryY=0.118;entryDx=0;entryDy=0;entryPerimeter=0;" parent="1" edge="1">
          <mxGeometry width="50" height="50" relative="1" as="geometry">
            <mxPoint x="2996.6666666666665" y="2090.02" as="sourcePoint" />
            <mxPoint x="3057.7666666666664" y="2090" as="targetPoint" />
          </mxGeometry>
        </mxCell>
        <mxCell id="Lzw2r7slbGNOF9ULyKfq-7" value="Break" style="rounded=1;whiteSpace=wrap;html=1;absoluteArcSize=1;arcSize=14;strokeWidth=2;" parent="1" vertex="1">
          <mxGeometry x="2886.6666666666665" y="2190" width="110.00000000000001" height="110" as="geometry" />
        </mxCell>
        <mxCell id="Lzw2r7slbGNOF9ULyKfq-8" value="" style="edgeStyle=orthogonalEdgeStyle;rounded=0;orthogonalLoop=1;jettySize=auto;html=1;" parent="1" source="Lzw2r7slbGNOF9ULyKfq-3" target="Lzw2r7slbGNOF9ULyKfq-7" edge="1">
          <mxGeometry relative="1" as="geometry" />
        </mxCell>
        <mxCell id="Lzw2r7slbGNOF9ULyKfq-12" value="kesempatan dikurang 1" style="rounded=1;whiteSpace=wrap;html=1;absoluteArcSize=1;arcSize=14;strokeWidth=2;" parent="1" vertex="1">
          <mxGeometry x="2357" y="2210" width="150" height="150" as="geometry" />
        </mxCell>
        <mxCell id="Lzw2r7slbGNOF9ULyKfq-13" value="" style="edgeStyle=orthogonalEdgeStyle;rounded=0;orthogonalLoop=1;jettySize=auto;html=1;" parent="1" source="x9-Wz6svkBGzex6C_qUv-57" target="Lzw2r7slbGNOF9ULyKfq-12" edge="1">
          <mxGeometry relative="1" as="geometry" />
        </mxCell>
        <mxCell id="Lzw2r7slbGNOF9ULyKfq-22" value="F" style="edgeLabel;html=1;align=center;verticalAlign=middle;resizable=0;points=[];" parent="Lzw2r7slbGNOF9ULyKfq-13" vertex="1" connectable="0">
          <mxGeometry x="-0.5023" y="3" relative="1" as="geometry">
            <mxPoint as="offset" />
          </mxGeometry>
        </mxCell>
        <mxCell id="Lzw2r7slbGNOF9ULyKfq-31" style="edgeStyle=orthogonalEdgeStyle;rounded=0;orthogonalLoop=1;jettySize=auto;html=1;exitX=0;exitY=0.5;exitDx=0;exitDy=0;exitPerimeter=0;entryX=1;entryY=0.5;entryDx=0;entryDy=0;" parent="1" source="Lzw2r7slbGNOF9ULyKfq-14" target="Lzw2r7slbGNOF9ULyKfq-29" edge="1">
          <mxGeometry relative="1" as="geometry" />
        </mxCell>
        <mxCell id="Lzw2r7slbGNOF9ULyKfq-32" value="F" style="edgeLabel;html=1;align=center;verticalAlign=middle;resizable=0;points=[];" parent="Lzw2r7slbGNOF9ULyKfq-31" vertex="1" connectable="0">
          <mxGeometry x="-0.1051" y="-1" relative="1" as="geometry">
            <mxPoint x="-1" as="offset" />
          </mxGeometry>
        </mxCell>
        <mxCell id="Lzw2r7slbGNOF9ULyKfq-14" value="if&lt;div&gt;kesempatan &amp;gt; 0&lt;/div&gt;" style="strokeWidth=2;html=1;shape=mxgraph.flowchart.decision;whiteSpace=wrap;" parent="1" vertex="1">
          <mxGeometry x="2357" y="2441" width="150" height="150" as="geometry" />
        </mxCell>
        <mxCell id="Lzw2r7slbGNOF9ULyKfq-15" value="" style="edgeStyle=orthogonalEdgeStyle;rounded=0;orthogonalLoop=1;jettySize=auto;html=1;" parent="1" source="Lzw2r7slbGNOF9ULyKfq-12" target="Lzw2r7slbGNOF9ULyKfq-14" edge="1">
          <mxGeometry relative="1" as="geometry" />
        </mxCell>
        <mxCell id="Lzw2r7slbGNOF9ULyKfq-53" style="edgeStyle=orthogonalEdgeStyle;rounded=0;orthogonalLoop=1;jettySize=auto;html=1;exitX=0.5;exitY=1;exitDx=0;exitDy=0;entryX=0.625;entryY=1;entryDx=0;entryDy=0;" parent="1" source="Lzw2r7slbGNOF9ULyKfq-16" target="x9-Wz6svkBGzex6C_qUv-32" edge="1">
          <mxGeometry relative="1" as="geometry" />
        </mxCell>
        <mxCell id="Lzw2r7slbGNOF9ULyKfq-16" value="Output nunjukkin&lt;div&gt;sisa kesempatan&lt;/div&gt;" style="shape=parallelogram;html=1;strokeWidth=2;perimeter=parallelogramPerimeter;whiteSpace=wrap;rounded=1;arcSize=12;size=0.23;" parent="1" vertex="1">
          <mxGeometry x="2327.12" y="2711" width="183.33333333333331" height="110" as="geometry" />
        </mxCell>
        <mxCell id="Lzw2r7slbGNOF9ULyKfq-17" value="" style="endArrow=classic;html=1;rounded=0;entryX=0.206;entryY=0.118;entryDx=0;entryDy=0;entryPerimeter=0;" parent="1" edge="1">
          <mxGeometry width="50" height="50" relative="1" as="geometry">
            <mxPoint x="2473.7866666666664" y="2801.02" as="sourcePoint" />
            <mxPoint x="2534.8866666666663" y="2801" as="targetPoint" />
          </mxGeometry>
        </mxCell>
        <mxCell id="Lzw2r7slbGNOF9ULyKfq-20" style="edgeStyle=orthogonalEdgeStyle;rounded=0;orthogonalLoop=1;jettySize=auto;html=1;exitX=0.5;exitY=1;exitDx=0;exitDy=0;exitPerimeter=0;entryX=0.581;entryY=0.036;entryDx=0;entryDy=0;entryPerimeter=0;" parent="1" source="Lzw2r7slbGNOF9ULyKfq-14" target="Lzw2r7slbGNOF9ULyKfq-16" edge="1">
          <mxGeometry relative="1" as="geometry" />
        </mxCell>
        <mxCell id="Lzw2r7slbGNOF9ULyKfq-21" value="T" style="edgeLabel;html=1;align=center;verticalAlign=middle;resizable=0;points=[];" parent="Lzw2r7slbGNOF9ULyKfq-20" vertex="1" connectable="0">
          <mxGeometry x="-0.4217" y="-6" relative="1" as="geometry">
            <mxPoint as="offset" />
          </mxGeometry>
        </mxCell>
        <mxCell id="Lzw2r7slbGNOF9ULyKfq-29" value="Output Pemberitahuan&lt;div&gt;login gagal tiga kali&lt;/div&gt;" style="shape=parallelogram;html=1;strokeWidth=2;perimeter=parallelogramPerimeter;whiteSpace=wrap;rounded=1;arcSize=12;size=0.23;" parent="1" vertex="1">
          <mxGeometry x="2063.78" y="2461" width="183.33333333333331" height="110" as="geometry" />
        </mxCell>
        <mxCell id="Lzw2r7slbGNOF9ULyKfq-30" value="" style="endArrow=classic;html=1;rounded=0;entryX=0.206;entryY=0.118;entryDx=0;entryDy=0;entryPerimeter=0;" parent="1" edge="1">
          <mxGeometry width="50" height="50" relative="1" as="geometry">
            <mxPoint x="2210.4466666666667" y="2551.02" as="sourcePoint" />
            <mxPoint x="2271.5466666666666" y="2551" as="targetPoint" />
          </mxGeometry>
        </mxCell>
        <mxCell id="Lzw2r7slbGNOF9ULyKfq-33" value="login = false" style="rounded=1;whiteSpace=wrap;html=1;absoluteArcSize=1;arcSize=14;strokeWidth=2;" parent="1" vertex="1">
          <mxGeometry x="1873.78" y="2461" width="110.00000000000001" height="110" as="geometry" />
        </mxCell>
        <mxCell id="Lzw2r7slbGNOF9ULyKfq-34" value="" style="edgeStyle=orthogonalEdgeStyle;rounded=0;orthogonalLoop=1;jettySize=auto;html=1;" parent="1" source="Lzw2r7slbGNOF9ULyKfq-29" target="Lzw2r7slbGNOF9ULyKfq-33" edge="1">
          <mxGeometry relative="1" as="geometry" />
        </mxCell>
        <mxCell id="Lzw2r7slbGNOF9ULyKfq-35" value="End" style="strokeWidth=2;html=1;shape=mxgraph.flowchart.start_1;whiteSpace=wrap;" parent="1" vertex="1">
          <mxGeometry x="157.99833333333336" y="870" width="183.33333333333331" height="110" as="geometry" />
        </mxCell>
        <mxCell id="Lzw2r7slbGNOF9ULyKfq-36" value="" style="edgeStyle=orthogonalEdgeStyle;rounded=0;orthogonalLoop=1;jettySize=auto;html=1;" parent="1" source="x9-Wz6svkBGzex6C_qUv-5" target="Lzw2r7slbGNOF9ULyKfq-35" edge="1">
          <mxGeometry relative="1" as="geometry" />
        </mxCell>
        <mxCell id="Lzw2r7slbGNOF9ULyKfq-37" value="F" style="edgeLabel;html=1;align=center;verticalAlign=middle;resizable=0;points=[];" parent="Lzw2r7slbGNOF9ULyKfq-36" vertex="1" connectable="0">
          <mxGeometry x="-0.27" y="-3" relative="1" as="geometry">
            <mxPoint y="-1" as="offset" />
          </mxGeometry>
        </mxCell>
        <mxCell id="Lzw2r7slbGNOF9ULyKfq-38" value="Break" style="rounded=1;whiteSpace=wrap;html=1;absoluteArcSize=1;arcSize=14;strokeWidth=2;" parent="1" vertex="1">
          <mxGeometry x="1683.78" y="2461" width="110.00000000000001" height="110" as="geometry" />
        </mxCell>
        <mxCell id="Lzw2r7slbGNOF9ULyKfq-39" value="" style="edgeStyle=orthogonalEdgeStyle;rounded=0;orthogonalLoop=1;jettySize=auto;html=1;" parent="1" source="Lzw2r7slbGNOF9ULyKfq-33" target="Lzw2r7slbGNOF9ULyKfq-38" edge="1">
          <mxGeometry relative="1" as="geometry" />
        </mxCell>
        <mxCell id="Lzw2r7slbGNOF9ULyKfq-40" value="A" style="verticalLabelPosition=middle;verticalAlign=middle;html=1;shape=offPageConnector;rounded=0;size=0.5;labelPosition=center;align=center;" parent="1" vertex="1">
          <mxGeometry x="1493.78" y="2461" width="110" height="110" as="geometry" />
        </mxCell>
        <mxCell id="Lzw2r7slbGNOF9ULyKfq-41" value="" style="edgeStyle=orthogonalEdgeStyle;rounded=0;orthogonalLoop=1;jettySize=auto;html=1;" parent="1" source="Lzw2r7slbGNOF9ULyKfq-38" target="Lzw2r7slbGNOF9ULyKfq-40" edge="1">
          <mxGeometry relative="1" as="geometry" />
        </mxCell>
        <mxCell id="Lzw2r7slbGNOF9ULyKfq-43" value="A" style="verticalLabelPosition=middle;verticalAlign=middle;html=1;shape=offPageConnector;rounded=0;size=0.5;labelPosition=center;align=center;" parent="1" vertex="1">
          <mxGeometry x="2886.6666666666665" y="2380" width="110" height="110" as="geometry" />
        </mxCell>
        <mxCell id="Lzw2r7slbGNOF9ULyKfq-44" value="" style="edgeStyle=orthogonalEdgeStyle;rounded=0;orthogonalLoop=1;jettySize=auto;html=1;" parent="1" source="Lzw2r7slbGNOF9ULyKfq-7" target="Lzw2r7slbGNOF9ULyKfq-43" edge="1">
          <mxGeometry relative="1" as="geometry" />
        </mxCell>
        <mxCell id="Lzw2r7slbGNOF9ULyKfq-49" value="A" style="verticalLabelPosition=middle;verticalAlign=middle;html=1;shape=offPageConnector;rounded=0;size=0.5;labelPosition=center;align=center;" parent="1" vertex="1">
          <mxGeometry x="1089.9983333333332" y="1480" width="110" height="110" as="geometry" />
        </mxCell>
        <mxCell id="Lzw2r7slbGNOF9ULyKfq-52" value="A" style="verticalLabelPosition=middle;verticalAlign=middle;html=1;shape=offPageConnector;rounded=0;size=0.5;labelPosition=center;align=center;" parent="1" vertex="1">
          <mxGeometry x="4250" y="390" width="60" height="60" as="geometry" />
        </mxCell>
        <mxCell id="Lzw2r7slbGNOF9ULyKfq-60" value="total = 0&lt;div&gt;keranjang = &quot;&quot;&lt;/div&gt;" style="rounded=1;whiteSpace=wrap;html=1;absoluteArcSize=1;arcSize=14;strokeWidth=2;" parent="1" vertex="1">
          <mxGeometry x="4215" y="530" width="130" height="100" as="geometry" />
        </mxCell>
        <mxCell id="Lzw2r7slbGNOF9ULyKfq-61" value="" style="edgeStyle=orthogonalEdgeStyle;rounded=0;orthogonalLoop=1;jettySize=auto;html=1;" parent="1" source="Lzw2r7slbGNOF9ULyKfq-52" target="Lzw2r7slbGNOF9ULyKfq-60" edge="1">
          <mxGeometry relative="1" as="geometry" />
        </mxCell>
        <mxCell id="Lzw2r7slbGNOF9ULyKfq-62" value="While True" style="verticalLabelPosition=middle;verticalAlign=middle;html=1;shape=hexagon;perimeter=hexagonPerimeter2;arcSize=6;size=0.27;labelPosition=center;align=center;" parent="1" vertex="1">
          <mxGeometry x="4196.666666666667" y="710" width="166.66666666666669" height="100" as="geometry" />
        </mxCell>
        <mxCell id="Lzw2r7slbGNOF9ULyKfq-63" value="" style="edgeStyle=orthogonalEdgeStyle;rounded=0;orthogonalLoop=1;jettySize=auto;html=1;" parent="1" source="Lzw2r7slbGNOF9ULyKfq-60" target="Lzw2r7slbGNOF9ULyKfq-62" edge="1">
          <mxGeometry relative="1" as="geometry" />
        </mxCell>
        <mxCell id="Lzw2r7slbGNOF9ULyKfq-69" style="edgeStyle=orthogonalEdgeStyle;rounded=0;orthogonalLoop=1;jettySize=auto;html=1;exitX=1;exitY=0.5;exitDx=0;exitDy=0;" parent="1" source="Lzw2r7slbGNOF9ULyKfq-64" target="Lzw2r7slbGNOF9ULyKfq-67" edge="1">
          <mxGeometry relative="1" as="geometry" />
        </mxCell>
        <mxCell id="Lzw2r7slbGNOF9ULyKfq-64" value="Output Menu Produk" style="shape=parallelogram;html=1;strokeWidth=2;perimeter=parallelogramPerimeter;whiteSpace=wrap;rounded=1;arcSize=12;size=0.23;" parent="1" vertex="1">
          <mxGeometry x="4443.333333333333" y="710" width="166.66666666666669" height="100" as="geometry" />
        </mxCell>
        <mxCell id="Lzw2r7slbGNOF9ULyKfq-65" value="" style="edgeStyle=orthogonalEdgeStyle;rounded=0;orthogonalLoop=1;jettySize=auto;html=1;" parent="1" source="Lzw2r7slbGNOF9ULyKfq-62" target="Lzw2r7slbGNOF9ULyKfq-64" edge="1">
          <mxGeometry relative="1" as="geometry" />
        </mxCell>
        <mxCell id="X1MsL-uY44Cwmpi8W53h-41" value="T" style="edgeLabel;html=1;align=center;verticalAlign=middle;resizable=0;points=[];" vertex="1" connectable="0" parent="Lzw2r7slbGNOF9ULyKfq-65">
          <mxGeometry x="-0.2183" y="-4" relative="1" as="geometry">
            <mxPoint x="1" as="offset" />
          </mxGeometry>
        </mxCell>
        <mxCell id="Lzw2r7slbGNOF9ULyKfq-66" value="" style="endArrow=classic;html=1;rounded=0;exitX=1;exitY=1;exitDx=0;exitDy=0;" parent="1" source="Lzw2r7slbGNOF9ULyKfq-64" edge="1">
          <mxGeometry width="50" height="50" relative="1" as="geometry">
            <mxPoint x="4670" y="820" as="sourcePoint" />
            <mxPoint x="4670" y="790" as="targetPoint" />
          </mxGeometry>
        </mxCell>
        <mxCell id="Lzw2r7slbGNOF9ULyKfq-67" value="Output pertanyaan&lt;div&gt;pilih menu keberapa&lt;/div&gt;" style="shape=parallelogram;html=1;strokeWidth=2;perimeter=parallelogramPerimeter;whiteSpace=wrap;rounded=1;arcSize=12;size=0.23;" parent="1" vertex="1">
          <mxGeometry x="4700" y="710" width="166.66666666666669" height="100" as="geometry" />
        </mxCell>
        <mxCell id="Lzw2r7slbGNOF9ULyKfq-68" value="" style="endArrow=classic;html=1;rounded=0;exitX=1;exitY=1;exitDx=0;exitDy=0;" parent="1" source="Lzw2r7slbGNOF9ULyKfq-67" edge="1">
          <mxGeometry width="50" height="50" relative="1" as="geometry">
            <mxPoint x="4926.666666666667" y="820" as="sourcePoint" />
            <mxPoint x="4926.666666666667" y="790" as="targetPoint" />
          </mxGeometry>
        </mxCell>
        <mxCell id="Lzw2r7slbGNOF9ULyKfq-73" value="input pilih" style="shape=parallelogram;html=1;strokeWidth=2;perimeter=parallelogramPerimeter;whiteSpace=wrap;rounded=1;arcSize=12;size=0.23;" parent="1" vertex="1">
          <mxGeometry x="4700" y="890" width="166.66666666666669" height="100" as="geometry" />
        </mxCell>
        <mxCell id="Lzw2r7slbGNOF9ULyKfq-74" value="" style="edgeStyle=orthogonalEdgeStyle;rounded=0;orthogonalLoop=1;jettySize=auto;html=1;" parent="1" source="Lzw2r7slbGNOF9ULyKfq-67" target="Lzw2r7slbGNOF9ULyKfq-73" edge="1">
          <mxGeometry relative="1" as="geometry" />
        </mxCell>
        <mxCell id="Lzw2r7slbGNOF9ULyKfq-75" value="" style="endArrow=classic;html=1;rounded=0;exitX=1;exitY=1;exitDx=0;exitDy=0;" parent="1" edge="1">
          <mxGeometry width="50" height="50" relative="1" as="geometry">
            <mxPoint x="4640" y="911" as="sourcePoint" />
            <mxPoint x="4730.666666666667" y="910" as="targetPoint" />
          </mxGeometry>
        </mxCell>
        <mxCell id="Lzw2r7slbGNOF9ULyKfq-77" value="if&lt;div&gt;pilih == &quot;1&quot;&lt;/div&gt;" style="strokeWidth=2;html=1;shape=mxgraph.flowchart.decision;whiteSpace=wrap;" parent="1" vertex="1">
          <mxGeometry x="4733.333333333333" y="1070" width="100" height="100" as="geometry" />
        </mxCell>
        <mxCell id="Lzw2r7slbGNOF9ULyKfq-78" value="" style="edgeStyle=orthogonalEdgeStyle;rounded=0;orthogonalLoop=1;jettySize=auto;html=1;" parent="1" source="Lzw2r7slbGNOF9ULyKfq-73" target="Lzw2r7slbGNOF9ULyKfq-77" edge="1">
          <mxGeometry relative="1" as="geometry" />
        </mxCell>
        <mxCell id="Lzw2r7slbGNOF9ULyKfq-79" value="elif&lt;div&gt;pilih == &quot;2&quot;&lt;/div&gt;" style="strokeWidth=2;html=1;shape=mxgraph.flowchart.decision;whiteSpace=wrap;" parent="1" vertex="1">
          <mxGeometry x="4733.333333333333" y="1250" width="100" height="100" as="geometry" />
        </mxCell>
        <mxCell id="Lzw2r7slbGNOF9ULyKfq-80" value="" style="edgeStyle=orthogonalEdgeStyle;rounded=0;orthogonalLoop=1;jettySize=auto;html=1;" parent="1" source="Lzw2r7slbGNOF9ULyKfq-77" target="Lzw2r7slbGNOF9ULyKfq-79" edge="1">
          <mxGeometry relative="1" as="geometry" />
        </mxCell>
        <mxCell id="Lzw2r7slbGNOF9ULyKfq-81" value="elif&lt;div&gt;pilih == &quot;3&quot;&lt;/div&gt;" style="strokeWidth=2;html=1;shape=mxgraph.flowchart.decision;whiteSpace=wrap;" parent="1" vertex="1">
          <mxGeometry x="4733.333333333333" y="1430" width="100" height="100" as="geometry" />
        </mxCell>
        <mxCell id="Lzw2r7slbGNOF9ULyKfq-82" value="" style="edgeStyle=orthogonalEdgeStyle;rounded=0;orthogonalLoop=1;jettySize=auto;html=1;" parent="1" source="Lzw2r7slbGNOF9ULyKfq-79" target="Lzw2r7slbGNOF9ULyKfq-81" edge="1">
          <mxGeometry relative="1" as="geometry" />
        </mxCell>
        <mxCell id="Lzw2r7slbGNOF9ULyKfq-83" value="elif&lt;div&gt;pilih == &quot;4&quot;&lt;/div&gt;" style="strokeWidth=2;html=1;shape=mxgraph.flowchart.decision;whiteSpace=wrap;" parent="1" vertex="1">
          <mxGeometry x="4733.333333333333" y="1610" width="100" height="100" as="geometry" />
        </mxCell>
        <mxCell id="Lzw2r7slbGNOF9ULyKfq-84" value="" style="edgeStyle=orthogonalEdgeStyle;rounded=0;orthogonalLoop=1;jettySize=auto;html=1;" parent="1" source="Lzw2r7slbGNOF9ULyKfq-81" target="Lzw2r7slbGNOF9ULyKfq-83" edge="1">
          <mxGeometry relative="1" as="geometry" />
        </mxCell>
        <mxCell id="Lzw2r7slbGNOF9ULyKfq-85" value="Output Pemberitahuan&lt;div&gt;pilihan tidak valid&lt;/div&gt;" style="shape=parallelogram;html=1;strokeWidth=2;perimeter=parallelogramPerimeter;whiteSpace=wrap;rounded=1;arcSize=12;size=0.23;" parent="1" vertex="1">
          <mxGeometry x="4700" y="1790" width="166.66666666666669" height="100" as="geometry" />
        </mxCell>
        <mxCell id="Lzw2r7slbGNOF9ULyKfq-86" value="" style="edgeStyle=orthogonalEdgeStyle;rounded=0;orthogonalLoop=1;jettySize=auto;html=1;" parent="1" source="Lzw2r7slbGNOF9ULyKfq-83" target="Lzw2r7slbGNOF9ULyKfq-85" edge="1">
          <mxGeometry relative="1" as="geometry" />
        </mxCell>
        <mxCell id="Lzw2r7slbGNOF9ULyKfq-87" value="" style="endArrow=classic;html=1;rounded=0;" parent="1" edge="1">
          <mxGeometry width="50" height="50" relative="1" as="geometry">
            <mxPoint x="4835.499999999999" y="1871" as="sourcePoint" />
            <mxPoint x="4925.377344785322" y="1871" as="targetPoint" />
          </mxGeometry>
        </mxCell>
        <mxCell id="Lzw2r7slbGNOF9ULyKfq-88" value="bersihkan layar" style="rounded=1;whiteSpace=wrap;html=1;absoluteArcSize=1;arcSize=14;strokeWidth=2;" parent="1" vertex="1">
          <mxGeometry x="4913.333333333333" y="1070" width="100" height="100" as="geometry" />
        </mxCell>
        <mxCell id="Lzw2r7slbGNOF9ULyKfq-89" value="" style="edgeStyle=orthogonalEdgeStyle;rounded=0;orthogonalLoop=1;jettySize=auto;html=1;" parent="1" source="Lzw2r7slbGNOF9ULyKfq-77" target="Lzw2r7slbGNOF9ULyKfq-88" edge="1">
          <mxGeometry relative="1" as="geometry" />
        </mxCell>
        <mxCell id="Lzw2r7slbGNOF9ULyKfq-91" value="total += 5000&lt;div&gt;keranjang += &quot;pensil - 5000&quot;&lt;/div&gt;" style="rounded=1;whiteSpace=wrap;html=1;absoluteArcSize=1;arcSize=14;strokeWidth=2;" parent="1" vertex="1">
          <mxGeometry x="5093.333333333333" y="1070" width="100" height="100" as="geometry" />
        </mxCell>
        <mxCell id="Lzw2r7slbGNOF9ULyKfq-92" value="" style="edgeStyle=orthogonalEdgeStyle;rounded=0;orthogonalLoop=1;jettySize=auto;html=1;" parent="1" source="Lzw2r7slbGNOF9ULyKfq-88" target="Lzw2r7slbGNOF9ULyKfq-91" edge="1">
          <mxGeometry relative="1" as="geometry" />
        </mxCell>
        <mxCell id="Lzw2r7slbGNOF9ULyKfq-93" value="bersihkan layar" style="rounded=1;whiteSpace=wrap;html=1;absoluteArcSize=1;arcSize=14;strokeWidth=2;" parent="1" vertex="1">
          <mxGeometry x="4913.663333333333" y="1250" width="100" height="100" as="geometry" />
        </mxCell>
        <mxCell id="Lzw2r7slbGNOF9ULyKfq-94" value="" style="edgeStyle=orthogonalEdgeStyle;rounded=0;orthogonalLoop=1;jettySize=auto;html=1;" parent="1" target="Lzw2r7slbGNOF9ULyKfq-93" edge="1">
          <mxGeometry relative="1" as="geometry">
            <mxPoint x="4833.33" y="1300" as="sourcePoint" />
          </mxGeometry>
        </mxCell>
        <mxCell id="Lzw2r7slbGNOF9ULyKfq-95" value="total += 12000&lt;div&gt;keranjang += &quot;buku - 12000&quot;&lt;/div&gt;" style="rounded=1;whiteSpace=wrap;html=1;absoluteArcSize=1;arcSize=14;strokeWidth=2;" parent="1" vertex="1">
          <mxGeometry x="5093.663333333333" y="1250" width="100" height="100" as="geometry" />
        </mxCell>
        <mxCell id="Lzw2r7slbGNOF9ULyKfq-96" value="" style="edgeStyle=orthogonalEdgeStyle;rounded=0;orthogonalLoop=1;jettySize=auto;html=1;" parent="1" source="Lzw2r7slbGNOF9ULyKfq-93" target="Lzw2r7slbGNOF9ULyKfq-95" edge="1">
          <mxGeometry relative="1" as="geometry" />
        </mxCell>
        <mxCell id="Lzw2r7slbGNOF9ULyKfq-105" value="bersihkan layar" style="rounded=1;whiteSpace=wrap;html=1;absoluteArcSize=1;arcSize=14;strokeWidth=2;" parent="1" vertex="1">
          <mxGeometry x="4913.333333333333" y="1430" width="100" height="100" as="geometry" />
        </mxCell>
        <mxCell id="Lzw2r7slbGNOF9ULyKfq-106" value="" style="edgeStyle=orthogonalEdgeStyle;rounded=0;orthogonalLoop=1;jettySize=auto;html=1;" parent="1" target="Lzw2r7slbGNOF9ULyKfq-105" edge="1">
          <mxGeometry relative="1" as="geometry">
            <mxPoint x="4833" y="1480" as="sourcePoint" />
          </mxGeometry>
        </mxCell>
        <mxCell id="Lzw2r7slbGNOF9ULyKfq-107" value="total += 3000&lt;div&gt;keranjang += &quot;penghapus - 3000&quot;&lt;/div&gt;" style="rounded=1;whiteSpace=wrap;html=1;absoluteArcSize=1;arcSize=14;strokeWidth=2;" parent="1" vertex="1">
          <mxGeometry x="5093.333333333333" y="1430" width="100" height="100" as="geometry" />
        </mxCell>
        <mxCell id="Lzw2r7slbGNOF9ULyKfq-108" value="" style="edgeStyle=orthogonalEdgeStyle;rounded=0;orthogonalLoop=1;jettySize=auto;html=1;" parent="1" source="Lzw2r7slbGNOF9ULyKfq-105" target="Lzw2r7slbGNOF9ULyKfq-107" edge="1">
          <mxGeometry relative="1" as="geometry" />
        </mxCell>
        <mxCell id="Lzw2r7slbGNOF9ULyKfq-109" value="Output&lt;div&gt;&amp;nbsp;Pensil berhasil&lt;div&gt;ditambahkan di&lt;/div&gt;&lt;div&gt;keranjang dan total&lt;/div&gt;&lt;div&gt;sementara&lt;/div&gt;&lt;/div&gt;" style="shape=parallelogram;html=1;strokeWidth=2;perimeter=parallelogramPerimeter;whiteSpace=wrap;rounded=1;arcSize=12;size=0.23;" parent="1" vertex="1">
          <mxGeometry x="5273.333333333333" y="1070" width="166.66666666666669" height="100" as="geometry" />
        </mxCell>
        <mxCell id="Lzw2r7slbGNOF9ULyKfq-110" value="" style="edgeStyle=orthogonalEdgeStyle;rounded=0;orthogonalLoop=1;jettySize=auto;html=1;" parent="1" source="Lzw2r7slbGNOF9ULyKfq-91" target="Lzw2r7slbGNOF9ULyKfq-109" edge="1">
          <mxGeometry relative="1" as="geometry" />
        </mxCell>
        <mxCell id="Lzw2r7slbGNOF9ULyKfq-112" value="" style="endArrow=classic;html=1;rounded=0;exitX=1;exitY=1;exitDx=0;exitDy=0;" parent="1" source="Lzw2r7slbGNOF9ULyKfq-109" edge="1">
          <mxGeometry width="50" height="50" relative="1" as="geometry">
            <mxPoint x="5510" y="1160" as="sourcePoint" />
            <mxPoint x="5510" y="1150" as="targetPoint" />
          </mxGeometry>
        </mxCell>
        <mxCell id="Lzw2r7slbGNOF9ULyKfq-113" value="Output&lt;div&gt;&amp;nbsp;buku berhasil&lt;div&gt;dita&lt;span style=&quot;background-color: transparent; color: light-dark(rgb(0, 0, 0), rgb(255, 255, 255));&quot;&gt;mbahkan di&lt;/span&gt;&lt;/div&gt;&lt;div&gt;keranjang dan total&lt;/div&gt;&lt;div&gt;sementara&lt;/div&gt;&lt;/div&gt;" style="shape=parallelogram;html=1;strokeWidth=2;perimeter=parallelogramPerimeter;whiteSpace=wrap;rounded=1;arcSize=12;size=0.23;" parent="1" vertex="1">
          <mxGeometry x="5275.333333333333" y="1254" width="166.66666666666669" height="100" as="geometry" />
        </mxCell>
        <mxCell id="Lzw2r7slbGNOF9ULyKfq-114" value="" style="edgeStyle=orthogonalEdgeStyle;rounded=0;orthogonalLoop=1;jettySize=auto;html=1;" parent="1" target="Lzw2r7slbGNOF9ULyKfq-113" edge="1">
          <mxGeometry relative="1" as="geometry">
            <mxPoint x="5195" y="1304" as="sourcePoint" />
          </mxGeometry>
        </mxCell>
        <mxCell id="Lzw2r7slbGNOF9ULyKfq-115" value="" style="endArrow=classic;html=1;rounded=0;exitX=1;exitY=1;exitDx=0;exitDy=0;" parent="1" source="Lzw2r7slbGNOF9ULyKfq-113" edge="1">
          <mxGeometry width="50" height="50" relative="1" as="geometry">
            <mxPoint x="5512" y="1344" as="sourcePoint" />
            <mxPoint x="5512" y="1334" as="targetPoint" />
          </mxGeometry>
        </mxCell>
        <mxCell id="Lzw2r7slbGNOF9ULyKfq-116" value="Output&amp;nbsp;&lt;div&gt;penghapus berhasil&lt;div&gt;ditambahkan di&lt;/div&gt;&lt;div&gt;keranjang dan total&lt;/div&gt;&lt;div&gt;sementara&lt;/div&gt;&lt;/div&gt;" style="shape=parallelogram;html=1;strokeWidth=2;perimeter=parallelogramPerimeter;whiteSpace=wrap;rounded=1;arcSize=12;size=0.23;" parent="1" vertex="1">
          <mxGeometry x="5274.333333333333" y="1429" width="166.66666666666669" height="100" as="geometry" />
        </mxCell>
        <mxCell id="Lzw2r7slbGNOF9ULyKfq-117" value="" style="edgeStyle=orthogonalEdgeStyle;rounded=0;orthogonalLoop=1;jettySize=auto;html=1;" parent="1" target="Lzw2r7slbGNOF9ULyKfq-116" edge="1">
          <mxGeometry relative="1" as="geometry">
            <mxPoint x="5194" y="1479" as="sourcePoint" />
          </mxGeometry>
        </mxCell>
        <mxCell id="Lzw2r7slbGNOF9ULyKfq-118" value="" style="endArrow=classic;html=1;rounded=0;exitX=1;exitY=1;exitDx=0;exitDy=0;" parent="1" source="Lzw2r7slbGNOF9ULyKfq-116" edge="1">
          <mxGeometry width="50" height="50" relative="1" as="geometry">
            <mxPoint x="5511" y="1519" as="sourcePoint" />
            <mxPoint x="5511" y="1509" as="targetPoint" />
          </mxGeometry>
        </mxCell>
        <mxCell id="X1MsL-uY44Cwmpi8W53h-1" value="Output Struk Belanja&lt;div&gt;Dengan variabel&lt;/div&gt;&lt;div&gt;keranjang&lt;/div&gt;" style="shape=parallelogram;html=1;strokeWidth=2;perimeter=parallelogramPerimeter;whiteSpace=wrap;rounded=1;arcSize=12;size=0.23;" vertex="1" parent="1">
          <mxGeometry x="4913.333333333333" y="1610" width="166.66666666666669" height="100" as="geometry" />
        </mxCell>
        <mxCell id="X1MsL-uY44Cwmpi8W53h-2" value="" style="edgeStyle=orthogonalEdgeStyle;rounded=0;orthogonalLoop=1;jettySize=auto;html=1;" edge="1" parent="1" source="Lzw2r7slbGNOF9ULyKfq-83" target="X1MsL-uY44Cwmpi8W53h-1">
          <mxGeometry relative="1" as="geometry" />
        </mxCell>
        <mxCell id="X1MsL-uY44Cwmpi8W53h-3" value="" style="endArrow=classic;html=1;rounded=0;exitX=1;exitY=1;exitDx=0;exitDy=0;" edge="1" parent="1" source="X1MsL-uY44Cwmpi8W53h-1">
          <mxGeometry width="50" height="50" relative="1" as="geometry">
            <mxPoint x="5100" y="1730" as="sourcePoint" />
            <mxPoint x="5100" y="1691" as="targetPoint" />
          </mxGeometry>
        </mxCell>
        <mxCell id="X1MsL-uY44Cwmpi8W53h-22" style="edgeStyle=orthogonalEdgeStyle;rounded=0;orthogonalLoop=1;jettySize=auto;html=1;exitX=0.5;exitY=1;exitDx=0;exitDy=0;exitPerimeter=0;entryX=0.5;entryY=0;entryDx=0;entryDy=0;" edge="1" parent="1" source="X1MsL-uY44Cwmpi8W53h-4" target="X1MsL-uY44Cwmpi8W53h-19">
          <mxGeometry relative="1" as="geometry" />
        </mxCell>
        <mxCell id="X1MsL-uY44Cwmpi8W53h-23" value="F" style="edgeLabel;html=1;align=center;verticalAlign=middle;resizable=0;points=[];" vertex="1" connectable="0" parent="X1MsL-uY44Cwmpi8W53h-22">
          <mxGeometry x="-0.3417" y="2" relative="1" as="geometry">
            <mxPoint as="offset" />
          </mxGeometry>
        </mxCell>
        <mxCell id="X1MsL-uY44Cwmpi8W53h-4" value="if login" style="strokeWidth=2;html=1;shape=mxgraph.flowchart.decision;whiteSpace=wrap;" vertex="1" parent="1">
          <mxGeometry x="5159.999999999999" y="1610" width="100" height="100" as="geometry" />
        </mxCell>
        <mxCell id="X1MsL-uY44Cwmpi8W53h-5" value="" style="edgeStyle=orthogonalEdgeStyle;rounded=0;orthogonalLoop=1;jettySize=auto;html=1;" edge="1" parent="1" source="X1MsL-uY44Cwmpi8W53h-1" target="X1MsL-uY44Cwmpi8W53h-4">
          <mxGeometry relative="1" as="geometry" />
        </mxCell>
        <mxCell id="X1MsL-uY44Cwmpi8W53h-18" style="edgeStyle=orthogonalEdgeStyle;rounded=0;orthogonalLoop=1;jettySize=auto;html=1;exitX=1;exitY=0.5;exitDx=0;exitDy=0;entryX=0;entryY=0.5;entryDx=0;entryDy=0;" edge="1" parent="1" source="X1MsL-uY44Cwmpi8W53h-6" target="X1MsL-uY44Cwmpi8W53h-16">
          <mxGeometry relative="1" as="geometry" />
        </mxCell>
        <mxCell id="X1MsL-uY44Cwmpi8W53h-6" value="diskon =&amp;nbsp;&lt;div&gt;total * 0.15&lt;/div&gt;&lt;div&gt;harga_akhir =&lt;/div&gt;&lt;div&gt;total - diskon&lt;/div&gt;" style="rounded=1;whiteSpace=wrap;html=1;absoluteArcSize=1;arcSize=14;strokeWidth=2;" vertex="1" parent="1">
          <mxGeometry x="5339.999999999999" y="1610" width="100" height="100" as="geometry" />
        </mxCell>
        <mxCell id="X1MsL-uY44Cwmpi8W53h-7" value="" style="edgeStyle=orthogonalEdgeStyle;rounded=0;orthogonalLoop=1;jettySize=auto;html=1;" edge="1" parent="1" source="X1MsL-uY44Cwmpi8W53h-4" target="X1MsL-uY44Cwmpi8W53h-6">
          <mxGeometry relative="1" as="geometry" />
        </mxCell>
        <mxCell id="X1MsL-uY44Cwmpi8W53h-21" value="T" style="edgeLabel;html=1;align=center;verticalAlign=middle;resizable=0;points=[];" vertex="1" connectable="0" parent="X1MsL-uY44Cwmpi8W53h-7">
          <mxGeometry x="-0.2" y="-2" relative="1" as="geometry">
            <mxPoint as="offset" />
          </mxGeometry>
        </mxCell>
        <mxCell id="X1MsL-uY44Cwmpi8W53h-69" style="edgeStyle=orthogonalEdgeStyle;rounded=0;orthogonalLoop=1;jettySize=auto;html=1;exitX=0;exitY=0.5;exitDx=0;exitDy=0;exitPerimeter=0;entryX=0.5;entryY=1;entryDx=0;entryDy=0;" edge="1" parent="1" source="X1MsL-uY44Cwmpi8W53h-8" target="X1MsL-uY44Cwmpi8W53h-68">
          <mxGeometry relative="1" as="geometry" />
        </mxCell>
        <mxCell id="X1MsL-uY44Cwmpi8W53h-8" value="" style="verticalLabelPosition=bottom;verticalAlign=top;html=1;shape=mxgraph.flowchart.on-page_reference;" vertex="1" parent="1">
          <mxGeometry x="121" y="2150" width="60" height="60" as="geometry" />
        </mxCell>
        <mxCell id="X1MsL-uY44Cwmpi8W53h-10" style="edgeStyle=orthogonalEdgeStyle;rounded=0;orthogonalLoop=1;jettySize=auto;html=1;exitX=0.5;exitY=1;exitDx=0;exitDy=0;entryX=0.5;entryY=1;entryDx=0;entryDy=0;entryPerimeter=0;" edge="1" parent="1" source="Lzw2r7slbGNOF9ULyKfq-43" target="X1MsL-uY44Cwmpi8W53h-8">
          <mxGeometry relative="1" as="geometry">
            <Array as="points">
              <mxPoint x="2942" y="2980" />
              <mxPoint x="151" y="2980" />
            </Array>
          </mxGeometry>
        </mxCell>
        <mxCell id="X1MsL-uY44Cwmpi8W53h-12" style="edgeStyle=orthogonalEdgeStyle;rounded=0;orthogonalLoop=1;jettySize=auto;html=1;exitX=0;exitY=0.5;exitDx=0;exitDy=0;entryX=1;entryY=0.5;entryDx=0;entryDy=0;entryPerimeter=0;" edge="1" parent="1" source="Lzw2r7slbGNOF9ULyKfq-40" target="X1MsL-uY44Cwmpi8W53h-8">
          <mxGeometry relative="1" as="geometry" />
        </mxCell>
        <mxCell id="X1MsL-uY44Cwmpi8W53h-13" style="edgeStyle=orthogonalEdgeStyle;rounded=0;orthogonalLoop=1;jettySize=auto;html=1;exitX=0.5;exitY=1;exitDx=0;exitDy=0;entryX=0.5;entryY=0;entryDx=0;entryDy=0;entryPerimeter=0;" edge="1" parent="1" source="Lzw2r7slbGNOF9ULyKfq-49" target="X1MsL-uY44Cwmpi8W53h-8">
          <mxGeometry relative="1" as="geometry" />
        </mxCell>
        <mxCell id="X1MsL-uY44Cwmpi8W53h-16" value="Output&lt;div&gt;harga&lt;/div&gt;&lt;div&gt;sebelum diskon,&lt;/div&gt;&lt;div&gt;diskon, dan&amp;nbsp;&lt;/div&gt;&lt;div&gt;total bayar&lt;/div&gt;" style="shape=parallelogram;html=1;strokeWidth=2;perimeter=parallelogramPerimeter;whiteSpace=wrap;rounded=1;arcSize=12;size=0.23;" vertex="1" parent="1">
          <mxGeometry x="5530" y="1610" width="166.66666666666669" height="100" as="geometry" />
        </mxCell>
        <mxCell id="X1MsL-uY44Cwmpi8W53h-17" value="" style="endArrow=classic;html=1;rounded=0;exitX=1;exitY=1;exitDx=0;exitDy=0;" edge="1" parent="1" source="X1MsL-uY44Cwmpi8W53h-16">
          <mxGeometry width="50" height="50" relative="1" as="geometry">
            <mxPoint x="5766.666666666667" y="1700" as="sourcePoint" />
            <mxPoint x="5766.666666666667" y="1690" as="targetPoint" />
          </mxGeometry>
        </mxCell>
        <mxCell id="X1MsL-uY44Cwmpi8W53h-19" value="Output total bayar&lt;div&gt;tanpa diskon&lt;/div&gt;" style="shape=parallelogram;html=1;strokeWidth=2;perimeter=parallelogramPerimeter;whiteSpace=wrap;rounded=1;arcSize=12;size=0.23;" vertex="1" parent="1">
          <mxGeometry x="5126.67" y="1770" width="166.66666666666669" height="100" as="geometry" />
        </mxCell>
        <mxCell id="X1MsL-uY44Cwmpi8W53h-20" value="" style="endArrow=classic;html=1;rounded=0;exitX=1;exitY=1;exitDx=0;exitDy=0;" edge="1" parent="1" source="X1MsL-uY44Cwmpi8W53h-19">
          <mxGeometry width="50" height="50" relative="1" as="geometry">
            <mxPoint x="5356.666666666667" y="1860" as="sourcePoint" />
            <mxPoint x="5356.666666666667" y="1850" as="targetPoint" />
          </mxGeometry>
        </mxCell>
        <mxCell id="X1MsL-uY44Cwmpi8W53h-24" value="" style="verticalLabelPosition=bottom;verticalAlign=top;html=1;shape=mxgraph.flowchart.on-page_reference;" vertex="1" parent="1">
          <mxGeometry x="5460" y="2315" width="50" height="50" as="geometry" />
        </mxCell>
        <mxCell id="X1MsL-uY44Cwmpi8W53h-25" style="edgeStyle=orthogonalEdgeStyle;rounded=0;orthogonalLoop=1;jettySize=auto;html=1;exitX=0.5;exitY=1;exitDx=0;exitDy=0;entryX=0;entryY=0.5;entryDx=0;entryDy=0;entryPerimeter=0;" edge="1" parent="1" source="X1MsL-uY44Cwmpi8W53h-19" target="X1MsL-uY44Cwmpi8W53h-24">
          <mxGeometry relative="1" as="geometry" />
        </mxCell>
        <mxCell id="X1MsL-uY44Cwmpi8W53h-26" style="edgeStyle=orthogonalEdgeStyle;rounded=0;orthogonalLoop=1;jettySize=auto;html=1;exitX=0.5;exitY=1;exitDx=0;exitDy=0;entryX=1;entryY=0.5;entryDx=0;entryDy=0;entryPerimeter=0;" edge="1" parent="1" source="X1MsL-uY44Cwmpi8W53h-16" target="X1MsL-uY44Cwmpi8W53h-24">
          <mxGeometry relative="1" as="geometry" />
        </mxCell>
        <mxCell id="X1MsL-uY44Cwmpi8W53h-27" value="Output&lt;div&gt;Terima kasih sudah&lt;/div&gt;&lt;div&gt;berbelanja&lt;/div&gt;" style="shape=parallelogram;html=1;strokeWidth=2;perimeter=parallelogramPerimeter;whiteSpace=wrap;rounded=1;arcSize=12;size=0.23;" vertex="1" parent="1">
          <mxGeometry x="5400" y="2581" width="170" height="100" as="geometry" />
        </mxCell>
        <mxCell id="X1MsL-uY44Cwmpi8W53h-28" value="" style="edgeStyle=orthogonalEdgeStyle;rounded=0;orthogonalLoop=1;jettySize=auto;html=1;" edge="1" parent="1" source="X1MsL-uY44Cwmpi8W53h-24" target="X1MsL-uY44Cwmpi8W53h-27">
          <mxGeometry relative="1" as="geometry" />
        </mxCell>
        <mxCell id="X1MsL-uY44Cwmpi8W53h-30" value="Break" style="rounded=1;whiteSpace=wrap;html=1;absoluteArcSize=1;arcSize=14;strokeWidth=2;" vertex="1" parent="1">
          <mxGeometry x="5435" y="2761" width="100" height="100" as="geometry" />
        </mxCell>
        <mxCell id="X1MsL-uY44Cwmpi8W53h-31" value="" style="edgeStyle=orthogonalEdgeStyle;rounded=0;orthogonalLoop=1;jettySize=auto;html=1;" edge="1" parent="1" source="X1MsL-uY44Cwmpi8W53h-27" target="X1MsL-uY44Cwmpi8W53h-30">
          <mxGeometry relative="1" as="geometry" />
        </mxCell>
        <mxCell id="X1MsL-uY44Cwmpi8W53h-38" style="edgeStyle=orthogonalEdgeStyle;rounded=0;orthogonalLoop=1;jettySize=auto;html=1;exitX=0;exitY=0.5;exitDx=0;exitDy=0;exitPerimeter=0;entryX=0.794;entryY=0.897;entryDx=0;entryDy=0;entryPerimeter=0;" edge="1" parent="1" source="X1MsL-uY44Cwmpi8W53h-32" target="Lzw2r7slbGNOF9ULyKfq-62">
          <mxGeometry relative="1" as="geometry">
            <mxPoint x="4301" y="810" as="targetPoint" />
            <Array as="points">
              <mxPoint x="4400" y="2400" />
              <mxPoint x="4400" y="810" />
              <mxPoint x="4329" y="810" />
            </Array>
          </mxGeometry>
        </mxCell>
        <mxCell id="X1MsL-uY44Cwmpi8W53h-32" value="" style="verticalLabelPosition=bottom;verticalAlign=top;html=1;shape=mxgraph.flowchart.on-page_reference;" vertex="1" parent="1">
          <mxGeometry x="4750" y="2370" width="60" height="60" as="geometry" />
        </mxCell>
        <mxCell id="X1MsL-uY44Cwmpi8W53h-34" style="edgeStyle=orthogonalEdgeStyle;rounded=0;orthogonalLoop=1;jettySize=auto;html=1;exitX=1;exitY=0.5;exitDx=0;exitDy=0;entryX=0.5;entryY=1;entryDx=0;entryDy=0;entryPerimeter=0;" edge="1" parent="1" source="Lzw2r7slbGNOF9ULyKfq-113" target="X1MsL-uY44Cwmpi8W53h-32">
          <mxGeometry relative="1" as="geometry">
            <Array as="points">
              <mxPoint x="5900" y="1304" />
              <mxPoint x="5900" y="2560" />
              <mxPoint x="4780" y="2560" />
            </Array>
          </mxGeometry>
        </mxCell>
        <mxCell id="X1MsL-uY44Cwmpi8W53h-36" style="edgeStyle=orthogonalEdgeStyle;rounded=0;orthogonalLoop=1;jettySize=auto;html=1;exitX=0.5;exitY=1;exitDx=0;exitDy=0;entryX=0.5;entryY=0;entryDx=0;entryDy=0;entryPerimeter=0;" edge="1" parent="1" source="Lzw2r7slbGNOF9ULyKfq-85" target="X1MsL-uY44Cwmpi8W53h-32">
          <mxGeometry relative="1" as="geometry" />
        </mxCell>
        <mxCell id="X1MsL-uY44Cwmpi8W53h-39" value="End" style="strokeWidth=2;html=1;shape=mxgraph.flowchart.start_1;whiteSpace=wrap;" vertex="1" parent="1">
          <mxGeometry x="4196.666666666667" y="890" width="166.66666666666669" height="100" as="geometry" />
        </mxCell>
        <mxCell id="X1MsL-uY44Cwmpi8W53h-40" value="" style="edgeStyle=orthogonalEdgeStyle;rounded=0;orthogonalLoop=1;jettySize=auto;html=1;" edge="1" parent="1" source="Lzw2r7slbGNOF9ULyKfq-62" target="X1MsL-uY44Cwmpi8W53h-39">
          <mxGeometry relative="1" as="geometry" />
        </mxCell>
        <mxCell id="X1MsL-uY44Cwmpi8W53h-42" value="F" style="edgeLabel;html=1;align=center;verticalAlign=middle;resizable=0;points=[];" vertex="1" connectable="0" parent="X1MsL-uY44Cwmpi8W53h-40">
          <mxGeometry x="-0.1114" y="-2" relative="1" as="geometry">
            <mxPoint y="-1" as="offset" />
          </mxGeometry>
        </mxCell>
        <mxCell id="X1MsL-uY44Cwmpi8W53h-43" value="" style="verticalLabelPosition=bottom;verticalAlign=top;html=1;shape=mxgraph.flowchart.on-page_reference;" vertex="1" parent="1">
          <mxGeometry x="5033" y="2370" width="60" height="60" as="geometry" />
        </mxCell>
        <mxCell id="X1MsL-uY44Cwmpi8W53h-44" style="edgeStyle=orthogonalEdgeStyle;rounded=0;orthogonalLoop=1;jettySize=auto;html=1;exitX=1;exitY=0.5;exitDx=0;exitDy=0;entryX=0.5;entryY=1;entryDx=0;entryDy=0;entryPerimeter=0;" edge="1" parent="1" source="Lzw2r7slbGNOF9ULyKfq-109" target="X1MsL-uY44Cwmpi8W53h-43">
          <mxGeometry relative="1" as="geometry">
            <Array as="points">
              <mxPoint x="5810" y="1120" />
              <mxPoint x="5810" y="2520" />
              <mxPoint x="5063" y="2520" />
            </Array>
          </mxGeometry>
        </mxCell>
        <mxCell id="X1MsL-uY44Cwmpi8W53h-45" style="edgeStyle=orthogonalEdgeStyle;rounded=0;orthogonalLoop=1;jettySize=auto;html=1;exitX=1;exitY=0.5;exitDx=0;exitDy=0;entryX=1;entryY=0.5;entryDx=0;entryDy=0;entryPerimeter=0;" edge="1" parent="1" source="Lzw2r7slbGNOF9ULyKfq-116" target="X1MsL-uY44Cwmpi8W53h-43">
          <mxGeometry relative="1" as="geometry">
            <Array as="points">
              <mxPoint x="5710" y="1479" />
              <mxPoint x="5710" y="2400" />
            </Array>
          </mxGeometry>
        </mxCell>
        <mxCell id="X1MsL-uY44Cwmpi8W53h-46" style="edgeStyle=orthogonalEdgeStyle;rounded=0;orthogonalLoop=1;jettySize=auto;html=1;exitX=0;exitY=0.5;exitDx=0;exitDy=0;exitPerimeter=0;entryX=1;entryY=0.5;entryDx=0;entryDy=0;entryPerimeter=0;" edge="1" parent="1" source="X1MsL-uY44Cwmpi8W53h-43" target="X1MsL-uY44Cwmpi8W53h-32">
          <mxGeometry relative="1" as="geometry" />
        </mxCell>
        <mxCell id="X1MsL-uY44Cwmpi8W53h-51" value="Output&lt;div&gt;Bertanya apakah&lt;/div&gt;&lt;div&gt;mau bertransaksi&amp;nbsp;&lt;/div&gt;&lt;div&gt;lagi? y/n&lt;/div&gt;" style="shape=parallelogram;html=1;strokeWidth=2;perimeter=parallelogramPerimeter;whiteSpace=wrap;rounded=1;arcSize=12;size=0.23;" vertex="1" parent="1">
          <mxGeometry x="5401.666666666667" y="2941" width="166.66666666666669" height="100" as="geometry" />
        </mxCell>
        <mxCell id="X1MsL-uY44Cwmpi8W53h-52" value="" style="edgeStyle=orthogonalEdgeStyle;rounded=0;orthogonalLoop=1;jettySize=auto;html=1;" edge="1" parent="1" source="X1MsL-uY44Cwmpi8W53h-30" target="X1MsL-uY44Cwmpi8W53h-51">
          <mxGeometry relative="1" as="geometry" />
        </mxCell>
        <mxCell id="X1MsL-uY44Cwmpi8W53h-53" value="if&lt;div&gt;ulang != &quot;y&quot;&lt;/div&gt;" style="strokeWidth=2;html=1;shape=mxgraph.flowchart.decision;whiteSpace=wrap;" vertex="1" parent="1">
          <mxGeometry x="5435" y="3121" width="100" height="100" as="geometry" />
        </mxCell>
        <mxCell id="X1MsL-uY44Cwmpi8W53h-54" value="" style="edgeStyle=orthogonalEdgeStyle;rounded=0;orthogonalLoop=1;jettySize=auto;html=1;" edge="1" parent="1" source="X1MsL-uY44Cwmpi8W53h-51" target="X1MsL-uY44Cwmpi8W53h-53">
          <mxGeometry relative="1" as="geometry" />
        </mxCell>
        <mxCell id="X1MsL-uY44Cwmpi8W53h-55" value="C" style="verticalLabelPosition=middle;verticalAlign=middle;html=1;shape=offPageConnector;rounded=0;size=0.5;labelPosition=center;align=center;" vertex="1" parent="1">
          <mxGeometry x="5435" y="3301" width="100" height="100" as="geometry" />
        </mxCell>
        <mxCell id="X1MsL-uY44Cwmpi8W53h-56" value="" style="edgeStyle=orthogonalEdgeStyle;rounded=0;orthogonalLoop=1;jettySize=auto;html=1;" edge="1" parent="1" source="X1MsL-uY44Cwmpi8W53h-53" target="X1MsL-uY44Cwmpi8W53h-55">
          <mxGeometry relative="1" as="geometry" />
        </mxCell>
        <mxCell id="X1MsL-uY44Cwmpi8W53h-67" value="F" style="edgeLabel;html=1;align=center;verticalAlign=middle;resizable=0;points=[];" vertex="1" connectable="0" parent="X1MsL-uY44Cwmpi8W53h-56">
          <mxGeometry x="-0.5083" y="-1" relative="1" as="geometry">
            <mxPoint as="offset" />
          </mxGeometry>
        </mxCell>
        <mxCell id="X1MsL-uY44Cwmpi8W53h-57" value="Output Pemberitahuan&lt;div&gt;program telah selesai&lt;/div&gt;" style="shape=parallelogram;html=1;strokeWidth=2;perimeter=parallelogramPerimeter;whiteSpace=wrap;rounded=1;arcSize=12;size=0.23;" vertex="1" parent="1">
          <mxGeometry x="5615" y="3121" width="166.66666666666669" height="100" as="geometry" />
        </mxCell>
        <mxCell id="X1MsL-uY44Cwmpi8W53h-58" value="" style="edgeStyle=orthogonalEdgeStyle;rounded=0;orthogonalLoop=1;jettySize=auto;html=1;" edge="1" parent="1" source="X1MsL-uY44Cwmpi8W53h-53" target="X1MsL-uY44Cwmpi8W53h-57">
          <mxGeometry relative="1" as="geometry" />
        </mxCell>
        <mxCell id="X1MsL-uY44Cwmpi8W53h-66" value="T" style="edgeLabel;html=1;align=center;verticalAlign=middle;resizable=0;points=[];" vertex="1" connectable="0" parent="X1MsL-uY44Cwmpi8W53h-58">
          <mxGeometry x="-0.2403" y="2" relative="1" as="geometry">
            <mxPoint x="-1" as="offset" />
          </mxGeometry>
        </mxCell>
        <mxCell id="X1MsL-uY44Cwmpi8W53h-59" value="" style="endArrow=classic;html=1;rounded=0;exitX=1;exitY=1;exitDx=0;exitDy=0;" edge="1" parent="1" source="X1MsL-uY44Cwmpi8W53h-51">
          <mxGeometry width="50" height="50" relative="1" as="geometry">
            <mxPoint x="5570" y="3020" as="sourcePoint" />
            <mxPoint x="5620" y="3022" as="targetPoint" />
          </mxGeometry>
        </mxCell>
        <mxCell id="X1MsL-uY44Cwmpi8W53h-60" value="" style="endArrow=classic;html=1;rounded=0;exitX=1;exitY=1;exitDx=0;exitDy=0;" edge="1" parent="1">
          <mxGeometry width="50" height="50" relative="1" as="geometry">
            <mxPoint x="5752" y="3200" as="sourcePoint" />
            <mxPoint x="5835" y="3200" as="targetPoint" />
          </mxGeometry>
        </mxCell>
        <mxCell id="X1MsL-uY44Cwmpi8W53h-61" value="Break" style="rounded=1;whiteSpace=wrap;html=1;absoluteArcSize=1;arcSize=14;strokeWidth=2;" vertex="1" parent="1">
          <mxGeometry x="5861.666666666666" y="3121" width="100" height="100" as="geometry" />
        </mxCell>
        <mxCell id="X1MsL-uY44Cwmpi8W53h-62" value="" style="edgeStyle=orthogonalEdgeStyle;rounded=0;orthogonalLoop=1;jettySize=auto;html=1;" edge="1" parent="1" source="X1MsL-uY44Cwmpi8W53h-57" target="X1MsL-uY44Cwmpi8W53h-61">
          <mxGeometry relative="1" as="geometry" />
        </mxCell>
        <mxCell id="X1MsL-uY44Cwmpi8W53h-64" value="End" style="strokeWidth=2;html=1;shape=mxgraph.flowchart.start_1;whiteSpace=wrap;" vertex="1" parent="1">
          <mxGeometry x="6041.666666666666" y="3121" width="166.66666666666669" height="100" as="geometry" />
        </mxCell>
        <mxCell id="X1MsL-uY44Cwmpi8W53h-65" value="" style="edgeStyle=orthogonalEdgeStyle;rounded=0;orthogonalLoop=1;jettySize=auto;html=1;" edge="1" parent="1" source="X1MsL-uY44Cwmpi8W53h-61" target="X1MsL-uY44Cwmpi8W53h-64">
          <mxGeometry relative="1" as="geometry" />
        </mxCell>
        <mxCell id="X1MsL-uY44Cwmpi8W53h-70" style="edgeStyle=orthogonalEdgeStyle;rounded=0;orthogonalLoop=1;jettySize=auto;html=1;exitX=1;exitY=0.5;exitDx=0;exitDy=0;entryX=0;entryY=0.5;entryDx=0;entryDy=0;" edge="1" parent="1" source="X1MsL-uY44Cwmpi8W53h-68" target="x9-Wz6svkBGzex6C_qUv-5">
          <mxGeometry relative="1" as="geometry" />
        </mxCell>
        <mxCell id="X1MsL-uY44Cwmpi8W53h-68" value="C" style="verticalLabelPosition=middle;verticalAlign=middle;html=1;shape=offPageConnector;rounded=0;size=0.5150214592274678;labelPosition=center;align=center;" vertex="1" parent="1">
          <mxGeometry x="-120" y="618.5" width="170" height="233" as="geometry" />
        </mxCell>
      </root>
    </mxGraphModel>
  </diagram>
</mxfile>
